<svg width="156" height="32" viewBox="0 0 156 32" fill="none" xmlns="http://www.w3.org/2000/svg">
<path d="M30.6627 14.4721C32.4295 9.33547 28.1233 3.27092 21.0446 0.926561C13.9659 -1.41779 6.79522 0.845815 5.02844 5.98247C3.26166 11.1191 7.56784 17.1837 14.6466 19.528C21.7253 21.8724 28.896 19.6088 30.6627 14.4721Z" fill="url(#paint0_linear_257_14)"/>
<path d="M26.6906 26.0224C28.4574 20.8858 24.1512 14.8212 17.0725 12.4769C9.9938 10.1325 2.82311 12.3961 1.05634 17.5328C-0.710443 22.6694 3.59573 28.734 10.6744 31.0783C17.7532 33.4227 24.9238 31.1591 26.6906 26.0224Z" fill="url(#paint1_linear_257_14)"/>
<path d="M31.2205 21.0571C33.1178 15.5413 27.7523 8.78347 19.2366 5.96319C10.7208 3.1429 2.27943 5.3281 0.382219 10.844C-1.51499 16.3598 3.85042 23.1176 12.3662 25.9379C20.882 28.7582 29.3233 26.573 31.2205 21.0571Z" fill="url(#paint2_linear_257_14)"/>
<path d="M43.0674 9.48722H44.0054V12.0306H44.0548C44.1572 11.6351 44.333 11.2615 44.5732 10.9285C44.8209 10.5794 45.1253 10.2725 45.4742 10.0201C45.8343 9.75852 46.2342 9.55416 46.6591 9.41455C47.1003 9.26806 47.5633 9.1944 48.0291 9.19655C48.5652 9.18571 49.0992 9.2635 49.609 9.42667C50.0204 9.56241 50.4046 9.76731 50.7445 10.0322C51.0423 10.2678 51.2933 10.5552 51.485 10.88C51.6595 11.1776 51.7845 11.5006 51.8553 11.8368H51.9047C52.2142 11.0533 52.7399 10.3697 53.4228 9.86267C54.0543 9.41859 54.8916 9.19655 55.9284 9.19655C56.47 9.19127 57.0086 9.2773 57.5206 9.45089C57.9937 9.61416 58.4238 9.87896 58.7795 10.226C59.1494 10.6013 59.4304 11.0521 59.6023 11.5461C59.8121 12.1543 59.9123 12.7936 59.8986 13.4355V21.9376H58.9605V13.4072C58.9605 12.616 58.8371 11.9943 58.5903 11.5421C58.3837 11.1367 58.0837 10.7842 57.7139 10.5126C57.4138 10.2952 57.0681 10.1462 56.7018 10.0766C56.4453 10.0285 56.1853 10.0002 55.9242 9.99186C55.3793 9.98576 54.8383 10.0845 54.3321 10.2825C53.8496 10.4742 53.4187 10.7726 53.0731 11.1545C52.7011 11.5746 52.421 12.0651 52.2503 12.5958C52.0428 13.2336 51.9427 13.9004 51.954 14.5699V21.9336H51.016V13.4072C51.0434 12.7708 50.9209 12.1367 50.6581 11.5542C50.4654 11.1506 50.1777 10.7978 49.8188 10.5248C49.5256 10.3112 49.1887 10.1625 48.8314 10.0887C48.5675 10.0326 48.299 10.0001 48.0291 9.99186C47.5556 9.99738 47.0872 10.0877 46.6467 10.2583C46.158 10.4425 45.7128 10.7228 45.3384 11.0819C44.9196 11.4888 44.5917 11.9769 44.3757 12.515C44.115 13.1706 43.9891 13.8704 44.0054 14.574V21.9376H43.0674V9.48722Z" fill="#48545C"/>
<path d="M64.2699 15.8295V15.9748C64.2664 16.6797 64.3668 17.3813 64.5681 18.058C64.7488 18.6875 65.0466 19.2788 65.4465 19.802C65.8337 20.3027 66.3336 20.7089 66.9071 20.9889C67.5425 21.2907 68.2419 21.4402 68.9477 21.4249C70.219 21.4249 71.2256 21.0979 71.9675 20.4439C72.7095 19.7899 73.221 18.8815 73.5021 17.7188H74.4402C74.1659 19.1722 73.5611 20.2864 72.6258 21.0616C71.6905 21.8367 70.4604 22.2242 68.9354 22.2242C68.0889 22.2432 67.2491 22.0734 66.4792 21.7277C65.7982 21.4109 65.1991 20.9472 64.7265 20.3712C64.2422 19.7684 63.8855 19.0766 63.6774 18.3365C63.4413 17.513 63.325 16.6608 63.3318 15.8053C63.3285 14.9571 63.4491 14.1129 63.6898 13.2982C63.9095 12.5358 64.2738 11.8208 64.7636 11.1909C65.2437 10.583 65.8549 10.0867 66.5532 9.73752C67.3396 9.35847 68.2076 9.17149 69.0835 9.19251C69.8965 9.17665 70.7027 9.34231 71.4409 9.67696C72.1059 9.98606 72.6921 10.4371 73.1565 10.9971C73.6273 11.5726 73.9832 12.23 74.2057 12.9349C74.4488 13.6992 74.5696 14.4959 74.5636 15.2966C74.5636 15.3773 74.5595 15.4702 74.5513 15.5752C74.543 15.6801 74.5389 15.7649 74.5389 15.8295H64.2699ZM73.6009 15.0221C73.5723 14.3681 73.4561 13.7206 73.2553 13.0964C73.0685 12.5161 72.7703 11.9762 72.3769 11.5058C71.9908 11.0467 71.5116 10.6713 70.9698 10.4036C70.3804 10.1241 69.7318 9.98574 69.0773 9.99993C68.3814 9.98159 67.6908 10.124 67.0614 10.4158C66.5015 10.6845 66.0043 11.0639 65.6008 11.53C65.1956 12.0074 64.8851 12.5552 64.6854 13.1448C64.4714 13.7554 64.338 14.3904 64.2884 15.0342L73.6009 15.0221Z" fill="#48545C"/>
<path d="M82.6378 10.2826H79.871V18.9745C79.8556 19.3771 79.9142 19.7791 80.0438 20.1614C80.1438 20.4332 80.3298 20.6666 80.5745 20.8275C80.835 20.9881 81.1316 21.0837 81.4385 21.1061C81.8283 21.1396 82.22 21.1477 82.611 21.1303V21.9377C82.1465 21.9701 81.6801 21.9661 81.2163 21.9256C80.7944 21.8946 80.3851 21.7704 80.0191 21.5623C79.6607 21.3443 79.3748 21.0287 79.1962 20.6539C78.9905 20.2502 78.9048 19.6931 78.9391 18.9825V10.2826H76.5878V9.48731H78.935V5.60767H79.871V9.48731H82.6378V10.2826Z" fill="#48545C"/>
<path d="M94.0094 19.463H93.96C93.8051 19.8457 93.5884 20.2015 93.3182 20.5167C93.0227 20.8605 92.6759 21.1586 92.2896 21.4008C91.8661 21.6682 91.4044 21.8723 90.9196 22.0063C90.3734 22.1565 89.8083 22.2298 89.241 22.2244C87.8916 22.2244 86.8466 21.9377 86.106 21.3645C85.3655 20.7912 84.9952 19.9071 84.9952 18.7121C84.9607 18.1382 85.0889 17.5662 85.3656 17.0595C85.6423 16.5528 86.0566 16.1313 86.5627 15.8417C87.0284 15.5702 87.5375 15.3778 88.0685 15.2725C88.5943 15.1633 89.1258 15.0824 89.6607 15.0303L91.1171 14.9091C91.654 14.8815 92.1871 14.8044 92.7093 14.679C93.0377 14.608 93.343 14.4582 93.598 14.243C93.7985 14.0516 93.9287 13.8003 93.9682 13.5285C94.0226 13.1677 94.0474 12.8031 94.0423 12.4384C94.0427 12.1128 93.9726 11.7908 93.8366 11.4938C93.6957 11.1914 93.4843 10.9259 93.2194 10.7186C92.8974 10.4715 92.528 10.2903 92.1333 10.1858C91.6027 10.043 91.0542 9.97506 90.5041 9.9839C89.3686 9.9839 88.4511 10.2584 87.7517 10.8075C87.0523 11.3565 86.6697 12.1908 86.6038 13.3105H85.6658C85.7316 11.9378 86.1801 10.9084 87.0112 10.2221C87.8422 9.53578 89.023 9.19263 90.5535 9.19263C92.0839 9.19263 93.1989 9.48733 93.8983 10.0767C94.2399 10.3595 94.5117 10.7146 94.6934 11.1152C94.8751 11.5159 94.962 11.9517 94.9474 12.39V19.6325C94.9474 19.8102 94.9515 19.9878 94.9597 20.1654C94.9656 20.3301 94.9947 20.4931 95.0461 20.6499C95.0908 20.7886 95.1768 20.9109 95.293 21.0011C95.4377 21.0985 95.6116 21.1454 95.7867 21.1343C96.0187 21.1276 96.2497 21.1033 96.4779 21.0617V21.8368C96.2282 21.9017 95.9709 21.9343 95.7126 21.9337C95.4054 21.9458 95.0988 21.8964 94.8116 21.7883C94.6099 21.7072 94.4348 21.5731 94.3056 21.4008C94.1865 21.2299 94.1065 21.0357 94.0711 20.8316C94.0284 20.5957 94.0077 20.3565 94.0094 20.117V19.463ZM94.0094 14.8607C93.7354 15.1593 93.3649 15.3561 92.9603 15.4178C92.4427 15.5215 91.9193 15.5943 91.3928 15.6358L89.8129 15.7812C89.3521 15.8296 88.8913 15.8969 88.4305 15.983C87.9926 16.0636 87.5713 16.215 87.1839 16.4311C86.8152 16.6395 86.5055 16.9351 86.2829 17.291C86.0357 17.7212 85.916 18.2106 85.9373 18.704C85.9373 19.6245 86.2336 20.3067 86.826 20.7508C87.4184 21.1949 88.2331 21.4169 89.2698 21.4169C90.3395 21.4169 91.187 21.2272 91.8124 20.8477C92.3846 20.521 92.8763 20.0743 93.2524 19.5397C93.5551 19.1081 93.7689 18.6226 93.8818 18.1106C93.9515 17.8036 93.9969 17.4918 94.0176 17.178L94.0094 14.8607Z" fill="#48545C"/>
<path d="M99.6191 17.7916C99.6397 18.3257 99.7742 18.8497 100.014 19.3297C100.236 19.7667 100.544 20.1557 100.922 20.474C101.299 20.7922 101.737 21.0332 102.211 21.1827C102.729 21.348 103.271 21.4298 103.816 21.425C104.258 21.4224 104.7 21.386 105.136 21.316C105.59 21.2466 106.032 21.1105 106.445 20.9122C106.839 20.7262 107.182 20.4491 107.444 20.1048C107.72 19.7191 107.858 19.2553 107.839 18.7847C107.839 18.0903 107.625 17.5655 107.197 17.2102C106.721 16.8301 106.171 16.5499 105.581 16.3867C104.892 16.1843 104.191 16.0265 103.482 15.9143C102.766 15.8017 102.063 15.6191 101.384 15.3693C100.772 15.1489 100.22 14.794 99.7692 14.3318C99.3414 13.8877 99.1274 13.2377 99.1274 12.3819C99.1049 11.8403 99.2482 11.3046 99.5388 10.8437C99.8123 10.4377 100.18 10.1014 100.613 9.86273C101.071 9.61275 101.566 9.43689 102.081 9.34194C102.618 9.2376 103.164 9.18487 103.711 9.18449C104.335 9.18033 104.957 9.25358 105.562 9.4025C106.104 9.53188 106.613 9.77116 107.055 10.105C107.48 10.4339 107.818 10.8574 108.043 11.3403C108.296 11.9128 108.418 12.533 108.401 13.157H107.463C107.476 12.6581 107.379 12.1623 107.179 11.7036C107.003 11.3169 106.732 10.9796 106.389 10.7226C106.031 10.4624 105.624 10.2732 105.192 10.1655C104.708 10.0416 104.21 9.9805 103.711 9.98384C103.276 9.98449 102.842 10.025 102.415 10.105C102.004 10.1745 101.607 10.3109 101.242 10.5087C100.905 10.6945 100.615 10.9509 100.39 11.2596C100.162 11.587 100.045 11.9771 100.057 12.3738C100.036 12.8072 100.167 13.2346 100.428 13.5849C100.691 13.9073 101.03 14.1634 101.415 14.3318C101.85 14.5281 102.305 14.6783 102.773 14.7799L104.295 15.1271C104.92 15.2401 105.509 15.3747 106.06 15.5308C106.571 15.6643 107.057 15.8769 107.5 16.1606C107.898 16.4218 108.225 16.7754 108.45 17.19C108.698 17.6868 108.817 18.236 108.796 18.7887C108.821 19.3802 108.657 19.9646 108.327 20.4601C108.017 20.8936 107.612 21.2536 107.142 21.5138C106.647 21.7864 106.109 21.9748 105.55 22.0709C104.984 22.1742 104.41 22.2269 103.834 22.2283C103.153 22.2344 102.475 22.1405 101.822 21.9498C101.23 21.7774 100.68 21.489 100.205 21.102C99.7437 20.7214 99.3729 20.2459 99.1192 19.7092C98.8468 19.1067 98.7066 18.4547 98.7078 17.7956L99.6191 17.7916Z" fill="#48545C"/>
<path d="M115.442 20.8679H115.492L118.948 9.4873H120.207L123.687 20.8719H123.737L127.291 9.4873H128.32L124.249 21.9337H123.089L119.614 10.6459H119.565L116.068 21.9337H114.883L110.851 9.4873H111.863L115.442 20.8679Z" fill="#48545C"/>
<path d="M139.313 19.4629H139.266C139.111 19.8457 138.894 20.2014 138.624 20.5166C138.328 20.8605 137.981 21.1585 137.595 21.4007C137.172 21.6681 136.71 21.8722 136.225 22.0063C135.679 22.1564 135.114 22.2298 134.547 22.2243C133.197 22.2243 132.152 21.9376 131.412 21.3644C130.671 20.7911 130.301 19.907 130.301 18.712C130.266 18.1381 130.394 17.5661 130.671 17.0594C130.948 16.5528 131.362 16.1312 131.868 15.8416C132.334 15.5702 132.843 15.3777 133.374 15.2724C133.9 15.1632 134.431 15.0823 134.966 15.0302L136.423 14.9091C136.959 14.8814 137.493 14.8043 138.015 14.6789C138.339 14.606 138.64 14.4563 138.891 14.2429C139.094 14.051 139.226 13.7981 139.266 13.5243C139.32 13.1635 139.345 12.799 139.34 12.4343C139.34 12.1087 139.27 11.7867 139.134 11.4896C138.993 11.1873 138.782 10.9218 138.517 10.7145C138.195 10.4673 137.825 10.2861 137.431 10.1816C136.9 10.0389 136.351 9.97093 135.801 9.97976C134.666 9.97976 133.748 10.2543 133.049 10.8033C132.35 11.3524 131.967 12.184 131.901 13.2983H130.963C131.029 11.9256 131.477 10.8962 132.308 10.2099C133.139 9.52357 134.32 9.18042 135.851 9.18042C137.381 9.18042 138.496 9.47513 139.196 10.0645C139.537 10.3473 139.809 10.7024 139.991 11.103C140.172 11.5037 140.259 11.9395 140.245 12.3778V19.6325C140.245 19.8101 140.249 19.9877 140.257 20.1653C140.263 20.33 140.292 20.493 140.343 20.6498C140.388 20.7885 140.474 20.9108 140.59 21.001C140.735 21.0984 140.909 21.1453 141.084 21.1342C141.316 21.1275 141.547 21.1033 141.775 21.0616V21.8367C141.526 21.9016 141.268 21.9342 141.01 21.9336C140.703 21.9457 140.396 21.8963 140.109 21.7883C139.907 21.7071 139.732 21.573 139.603 21.4007C139.484 21.2298 139.404 21.0356 139.368 20.8315C139.326 20.5956 139.305 20.3564 139.307 20.1169L139.313 19.4629ZM139.313 14.8606C139.039 15.1592 138.668 15.356 138.264 15.4177C137.746 15.5214 137.223 15.5942 136.696 15.6357L135.116 15.7811C134.656 15.8295 134.195 15.8968 133.734 15.9829C133.296 16.0635 132.875 16.2149 132.487 16.431C132.119 16.6394 131.809 16.935 131.586 17.2909C131.339 17.7211 131.219 18.2105 131.241 18.7039C131.241 19.6244 131.537 20.3066 132.129 20.7507C132.722 21.1948 133.536 21.4168 134.573 21.4168C135.643 21.4168 136.49 21.2271 137.116 20.8476C137.688 20.5209 138.18 20.0743 138.556 19.5396C138.859 19.108 139.072 18.6225 139.185 18.1105C139.255 17.8035 139.3 17.4917 139.321 17.1779L139.313 14.8606Z" fill="#48545C"/>
<path d="M145.608 12.3415H145.657C145.78 11.9867 145.947 11.6479 146.153 11.3322C146.399 10.9425 146.708 10.5948 147.068 10.3027C147.971 9.56772 149.113 9.17644 150.285 9.2006C151.161 9.17962 152.03 9.36222 152.82 9.73349C153.516 10.0713 154.125 10.5599 154.601 11.1626C155.084 11.7849 155.442 12.4919 155.654 13.2458C155.888 14.0575 156.004 14.8973 156 15.7407C156.01 16.6269 155.894 17.5102 155.654 18.3648C155.444 19.1009 155.086 19.7885 154.601 20.3874C154.124 20.9669 153.513 21.4275 152.82 21.7317C152.021 22.0711 151.156 22.2364 150.285 22.2162C149.301 22.2338 148.328 22.0001 147.463 21.5379C146.64 21.0858 146.038 20.351 145.657 19.3337H145.608V26.3825H144.694V9.48723H145.608V12.3415ZM150.285 21.4249C151.028 21.444 151.764 21.2861 152.431 20.9647C153.016 20.6708 153.525 20.248 153.916 19.7293C154.315 19.1852 154.609 18.5734 154.782 17.9248C155.156 16.5197 155.161 15.0444 154.795 13.6374C154.625 12.9804 154.341 12.3574 153.953 11.7964C153.57 11.2569 153.064 10.8119 152.476 10.4965C151.8 10.1718 151.058 10.002 150.305 9.99993C149.553 9.99784 148.809 10.1635 148.132 10.4844C147.556 10.7959 147.063 11.2356 146.692 11.7682C146.311 12.3241 146.039 12.9441 145.887 13.597C145.722 14.2972 145.64 15.0139 145.643 15.7326C145.635 16.4523 145.704 17.1707 145.848 17.8763C145.981 18.5231 146.237 19.1394 146.603 19.693C146.967 20.2252 147.463 20.6585 148.043 20.9526C148.74 21.2881 149.51 21.4503 150.285 21.4249Z" fill="#48545C"/>
<defs>
<linearGradient id="paint0_linear_257_14" x1="30.0449" y1="16.3973" x2="5.58484" y2="6.72911" gradientUnits="userSpaceOnUse">
<stop stop-color="#2581C4" stop-opacity="0"/>
<stop offset="0.09" stop-color="#44A4B9" stop-opacity="0.11"/>
<stop offset="0.2" stop-color="#66CBAD" stop-opacity="0.24"/>
<stop offset="0.32" stop-color="#7EE7A4" stop-opacity="0.33"/>
<stop offset="0.42" stop-color="#8DF89F" stop-opacity="0.38"/>
<stop offset="0.52" stop-color="#92FE9D" stop-opacity="0.4"/>
<stop offset="0.64" stop-color="#88FAA4" stop-opacity="0.4"/>
<stop offset="0.77" stop-color="#6AEFB8" stop-opacity="0.4"/>
<stop offset="0.9" stop-color="#38DDDA" stop-opacity="0.4"/>
<stop offset="1" stop-color="#00C9FF" stop-opacity="0.4"/>
</linearGradient>
<linearGradient id="paint1_linear_257_14" x1="26.1129" y1="27.9461" x2="1.65277" y2="18.2779" gradientUnits="userSpaceOnUse">
<stop offset="0.35" stop-color="#8E2DE2" stop-opacity="0.4"/>
<stop offset="0.47" stop-color="#8931E0" stop-opacity="0.38"/>
<stop offset="0.62" stop-color="#793EDC" stop-opacity="0.32"/>
<stop offset="0.77" stop-color="#5E53D4" stop-opacity="0.22"/>
<stop offset="0.93" stop-color="#3A70CA" stop-opacity="0.08"/>
<stop offset="1" stop-color="#2581C4" stop-opacity="0"/>
</linearGradient>
<linearGradient id="paint2_linear_257_14" x1="1.81384" y1="10.3824" x2="30.9231" y2="21.9545" gradientUnits="userSpaceOnUse">
<stop stop-color="#8E2DE2" stop-opacity="0.1"/>
<stop offset="0.46" stop-color="#4F68E1" stop-opacity="0.33"/>
<stop offset="0.83" stop-color="#2292E0" stop-opacity="0.5"/>
</linearGradient>
</defs>
</svg>
